<svg width="24" height="24" viewBox="0 0 24 24" fill="none" xmlns="http://www.w3.org/2000/svg">
<path fill-rule="evenodd" clip-rule="evenodd" d="M20.25 12.719V6.13701C20.25 5.45701 19.856 4.83901 19.24 4.55101C17.788 3.87301 14.009 2.11001 12.74 1.51801C12.271 1.29901 11.729 1.29901 11.26 1.51801C9.991 2.11001 6.212 3.87301 4.76 4.55101C4.144 4.83901 3.75 5.45701 3.75 6.13701V12.719C3.75 15.644 5.212 18.376 7.646 19.999L11.029 22.254C11.617 22.646 12.383 22.646 12.971 22.254L16.354 19.999C18.788 18.376 20.25 15.644 20.25 12.719ZM12 13.75C12.552 13.75 13 14.198 13 14.75C13 15.302 12.552 15.75 12 15.75C11.448 15.75 11 15.302 11 14.75C11 14.198 11.448 13.75 12 13.75ZM11.25 8.25001V12.25C11.25 12.664 11.586 13 12 13C12.414 13 12.75 12.664 12.75 12.25V8.25001C12.75 7.83601 12.414 7.50001 12 7.50001C11.586 7.50001 11.25 7.83601 11.25 8.25001Z" fill="white"/>
</svg>
