<svg width="24" height="24" viewBox="0 0 24 24" fill="none" xmlns="http://www.w3.org/2000/svg">
<path fill-rule="evenodd" clip-rule="evenodd" d="M10.2212 3.55402C11.2936 2.81533 12.7064 2.81533 13.7788 3.55402L19.6288 7.58386C20.4869 8.175 21 9.1544 21 10.2013V17.8286C21 19.5801 19.5897 21 17.85 21H6.15C4.4103 21 3 19.5801 3 17.8286V10.2013C3 9.1544 3.51311 8.175 4.37125 7.58386L10.2212 3.55402ZM9.75 16.9225C9.50147 16.9225 9.3 17.1254 9.3 17.3755C9.3 17.6257 9.50147 17.8286 9.75 17.8286H14.25C14.4985 17.8286 14.7 17.6257 14.7 17.3755C14.7 17.1254 14.4985 16.9225 14.25 16.9225H9.75Z" fill="#A0A3B5"/>
</svg>
