<svg width="24" height="24" viewBox="0 0 24 24" fill="none" xmlns="http://www.w3.org/2000/svg">
<path d="M20.6696 12.259C20.5891 12.0944 20.5891 11.9055 20.6696 11.7409L21.4155 10.215C21.8308 9.36534 21.5017 8.35266 20.6664 7.90943L19.166 7.11335C19.0041 7.02749 18.8932 6.87468 18.8615 6.69425L18.568 5.02127C18.4046 4.0898 17.543 3.46388 16.6068 3.59634L14.9251 3.83422C14.7436 3.85985 14.5641 3.80149 14.4324 3.67411L13.2117 2.49319C12.532 1.83562 11.4672 1.83558 10.7875 2.49319L9.56671 3.67422C9.435 3.80164 9.25551 3.85989 9.07403 3.83434L7.3923 3.59645C6.45579 3.46392 5.59448 4.08992 5.43108 5.02139L5.13765 6.69429C5.10597 6.87476 4.995 7.02753 4.83316 7.11342L3.3328 7.9095C2.49742 8.3527 2.16836 9.36546 2.58367 10.2151L3.32955 11.741C3.41002 11.9056 3.41002 12.0945 3.32955 12.2591L2.58363 13.785C2.16832 14.6346 2.49738 15.6473 3.33276 16.0905L4.83312 16.8866C4.995 16.9725 5.10597 17.1253 5.13765 17.3057L5.43108 18.9787C5.57983 19.8266 6.30693 20.4213 7.14258 20.4212C7.22488 20.4212 7.30839 20.4155 7.39234 20.4036L9.07407 20.1657C9.25543 20.14 9.43504 20.1984 9.56675 20.3258L10.7875 21.5067C11.1274 21.8356 11.5634 21.9999 11.9996 21.9999C12.4356 21.9999 12.8719 21.8355 13.2117 21.5067L14.4324 20.3258C14.5641 20.1984 14.7437 20.1402 14.9251 20.1657L16.6068 20.4036C17.5435 20.5361 18.4046 19.9101 18.568 18.9787L18.8615 17.3058C18.8932 17.1253 19.0042 16.9725 19.166 16.8866L20.6664 16.0905C21.5017 15.6473 21.8308 14.6346 21.4155 13.785L20.6696 12.259ZM9.69253 6.80921C10.8586 6.80921 11.8073 7.75791 11.8073 8.92398C11.8073 10.0901 10.8586 11.0387 9.69253 11.0387C8.52646 11.0387 7.57776 10.0901 7.57776 8.92398C7.57776 7.75791 8.52646 6.80921 9.69253 6.80921ZM8.60099 16.2141C8.48837 16.3267 8.34076 16.3831 8.19318 16.3831C8.04561 16.3831 7.89795 16.3268 7.78538 16.2141C7.56015 15.9889 7.56015 15.6237 7.78538 15.3985L15.3981 7.78576C15.6233 7.56053 15.9885 7.56053 16.2137 7.78576C16.439 8.01099 16.439 8.37618 16.2137 8.60141L8.60099 16.2141ZM14.3065 17.1908C13.1404 17.1908 12.1917 16.2421 12.1917 15.076C12.1917 13.9099 13.1404 12.9612 14.3065 12.9612C15.4726 12.9612 16.4213 13.9099 16.4213 15.076C16.4213 16.2421 15.4726 17.1908 14.3065 17.1908Z" fill="#84858D"/>
<path d="M14.307 14.1147C13.7769 14.1147 13.3457 14.5459 13.3457 15.0759C13.3457 15.6059 13.7769 16.0372 14.307 16.0372C14.837 16.0372 15.2682 15.6059 15.2682 15.0759C15.2682 14.5459 14.837 14.1147 14.307 14.1147Z" fill="#84858D"/>
<path d="M9.69366 7.96277C9.16363 7.96277 8.73242 8.39397 8.73242 8.924C8.73242 9.45403 9.16363 9.88528 9.69366 9.88528C10.2237 9.88528 10.6549 9.45407 10.6549 8.924C10.6549 8.39401 10.2237 7.96277 9.69366 7.96277Z" fill="#84858D"/>
</svg>
