<svg width="24" height="24" viewBox="0 0 24 24" fill="none" xmlns="http://www.w3.org/2000/svg">
<path d="M20.6705 12.259C20.5901 12.0944 20.5901 11.9055 20.6705 11.7409L21.4165 10.215C21.8318 9.36534 21.5027 8.35266 20.6673 7.90943L19.167 7.11335C19.0051 7.02749 18.8941 6.87468 18.8625 6.69425L18.569 5.02127C18.4056 4.0898 17.544 3.46388 16.6078 3.59634L14.9261 3.83422C14.7446 3.85985 14.5651 3.80149 14.4334 3.67411L13.2127 2.49319C12.533 1.83562 11.4681 1.83558 10.7885 2.49319L9.56769 3.67422C9.43597 3.80164 9.25648 3.85989 9.075 3.83434L7.39327 3.59645C6.45677 3.46392 5.59545 4.08992 5.43206 5.02139L5.13863 6.69429C5.10695 6.87476 4.99597 7.02753 4.83414 7.11342L3.33377 7.9095C2.4984 8.3527 2.16934 9.36546 2.58465 10.2151L3.33053 11.741C3.411 11.9056 3.411 12.0945 3.33053 12.2591L2.58461 13.785C2.1693 14.6346 2.49836 15.6473 3.33373 16.0905L4.8341 16.8866C4.99597 16.9725 5.10695 17.1253 5.13863 17.3057L5.43206 18.9787C5.58081 19.8266 6.3079 20.4213 7.14355 20.4212C7.22586 20.4212 7.30937 20.4155 7.39331 20.4036L9.07504 20.1657C9.25641 20.14 9.43601 20.1984 9.56773 20.3258L10.7885 21.5067C11.1284 21.8356 11.5644 21.9999 12.0005 21.9999C12.4366 21.9999 12.8729 21.8355 13.2126 21.5067L14.4334 20.3258C14.5651 20.1984 14.7446 20.1402 14.9261 20.1657L16.6078 20.4036C17.5444 20.5361 18.4056 19.9101 18.569 18.9787L18.8625 17.3058C18.8942 17.1253 19.0051 16.9725 19.167 16.8866L20.6673 16.0905C21.5027 15.6473 21.8318 14.6346 21.4165 13.785L20.6705 12.259ZM9.69351 6.80921C10.8596 6.80921 11.8083 7.75791 11.8083 8.92398C11.8083 10.0901 10.8596 11.0387 9.69351 11.0387C8.52743 11.0387 7.57874 10.0901 7.57874 8.92398C7.57874 7.75791 8.52743 6.80921 9.69351 6.80921ZM8.60196 16.2141C8.48935 16.3267 8.34173 16.3831 8.19416 16.3831C8.04658 16.3831 7.89893 16.3268 7.78635 16.2141C7.56112 15.9889 7.56112 15.6237 7.78635 15.3985L15.3991 7.78576C15.6243 7.56053 15.9895 7.56053 16.2147 7.78576C16.44 8.01099 16.44 8.37618 16.2147 8.60141L8.60196 16.2141ZM14.3075 17.1908C13.1414 17.1908 12.1927 16.2421 12.1927 15.076C12.1927 13.9099 13.1414 12.9612 14.3075 12.9612C15.4736 12.9612 16.4223 13.9099 16.4223 15.076C16.4223 16.2421 15.4736 17.1908 14.3075 17.1908Z" fill="white"/>
<path d="M14.308 14.1143C13.7779 14.1143 13.3467 14.5455 13.3467 15.0755C13.3467 15.6055 13.7779 16.0367 14.308 16.0367C14.838 16.0367 15.2692 15.6055 15.2692 15.0755C15.2692 14.5455 14.838 14.1143 14.308 14.1143Z" fill="white"/>
<path d="M9.69366 7.96289C9.16363 7.96289 8.73242 8.39409 8.73242 8.92412C8.73242 9.45415 9.16363 9.8854 9.69366 9.8854C10.2237 9.8854 10.6549 9.45419 10.6549 8.92412C10.6549 8.39413 10.2237 7.96289 9.69366 7.96289Z" fill="white"/>
</svg>
