<svg width="24" height="24" viewBox="0 0 24 24" fill="none" xmlns="http://www.w3.org/2000/svg">
<path fill-rule="evenodd" clip-rule="evenodd" d="M8 3.5C8 3.22386 7.77614 3 7.5 3C7.22386 3 7 3.22386 7 3.5V4H5C3.34315 4 2 5.34315 2 7V10H22V7C22 5.34315 20.6569 4 19 4H17V3.5C17 3.22386 16.7761 3 16.5 3C16.2239 3 16 3.22386 16 3.5V4H8V3.5ZM2 17V11H22V17C22 18.6569 20.6569 20 19 20H5C3.34315 20 2 18.6569 2 17ZM6 15C6 14.7239 6.22386 14.5 6.5 14.5H7.5C7.77614 14.5 8 14.7239 8 15C8 15.2761 7.77614 15.5 7.5 15.5H6.5C6.22386 15.5 6 15.2761 6 15ZM9 15C9 14.7239 9.22386 14.5 9.5 14.5H17.5C17.7761 14.5 18 14.7239 18 15C18 15.2761 17.7761 15.5 17.5 15.5H9.5C9.22386 15.5 9 15.2761 9 15Z" fill="#84858D"/>
</svg>
