<svg width="24" height="24" viewBox="0 0 24 24" fill="none" xmlns="http://www.w3.org/2000/svg">
<path fill-rule="evenodd" clip-rule="evenodd" d="M7.5 2C6.94772 2 6.5 2.44772 6.5 3V22H10V18.5C10 17.9477 10.4477 17.5 11 17.5H13C13.5523 17.5 14 17.9477 14 18.5V22H17.5V3C17.5 2.44772 17.0523 2 16.5 2H7.5ZM10 5C9.72386 5 9.5 5.22386 9.5 5.5V6.5C9.5 6.77614 9.72386 7 10 7H11C11.2761 7 11.5 6.77614 11.5 6.5V5.5C11.5 5.22386 11.2761 5 11 5H10ZM9.5 8.5C9.5 8.22386 9.72386 8 10 8H11C11.2761 8 11.5 8.22386 11.5 8.5V9.5C11.5 9.77614 11.2761 10 11 10H10C9.72386 10 9.5 9.77614 9.5 9.5V8.5ZM10 11C9.72386 11 9.5 11.2239 9.5 11.5V12.5C9.5 12.7761 9.72386 13 10 13H11C11.2761 13 11.5 12.7761 11.5 12.5V11.5C11.5 11.2239 11.2761 11 11 11H10ZM9.5 14.5C9.5 14.2239 9.72386 14 10 14H11C11.2761 14 11.5 14.2239 11.5 14.5V15.5C11.5 15.7761 11.2761 16 11 16H10C9.72386 16 9.5 15.7761 9.5 15.5V14.5ZM13 5C12.7239 5 12.5 5.22386 12.5 5.5V6.5C12.5 6.77614 12.7239 7 13 7H14C14.2761 7 14.5 6.77614 14.5 6.5V5.5C14.5 5.22386 14.2761 5 14 5H13ZM12.5 8.5C12.5 8.22386 12.7239 8 13 8H14C14.2761 8 14.5 8.22386 14.5 8.5V9.5C14.5 9.77614 14.2761 10 14 10H13C12.7239 10 12.5 9.77614 12.5 9.5V8.5ZM13 11C12.7239 11 12.5 11.2239 12.5 11.5V12.5C12.5 12.7761 12.7239 13 13 13H14C14.2761 13 14.5 12.7761 14.5 12.5V11.5C14.5 11.2239 14.2761 11 14 11H13ZM12.5 14.5C12.5 14.2239 12.7239 14 13 14H14C14.2761 14 14.5 14.2239 14.5 14.5V15.5C14.5 15.7761 14.2761 16 14 16H13C12.7239 16 12.5 15.7761 12.5 15.5V14.5Z" fill="white"/>
<path d="M5.5 22V5H4C3.44772 5 3 5.44772 3 6V21H2.5C2.22386 21 2 21.2239 2 21.5C2 21.7761 2.22386 22 2.5 22H5.5Z" fill="white"/>
<path d="M18.5 22V5H20C20.5523 5 21 5.44772 21 6V21H21.5C21.7761 21 22 21.2239 22 21.5C22 21.7761 21.7761 22 21.5 22H18.5Z" fill="white"/>
<path d="M13 22V18.5H11V22H13Z" fill="white"/>
</svg>
