<svg width="24" height="24" viewBox="0 0 24 24" fill="none" xmlns="http://www.w3.org/2000/svg">
<path d="M10.9745 10.9736L14.6618 9.33899L13.0271 13.0263L9.33984 14.6609L10.9745 10.9736Z" fill="#84858D"/>
<path fill-rule="evenodd" clip-rule="evenodd" d="M22 12C22 17.5229 17.5229 22 12 22C6.47715 22 2 17.5229 2 12C2 6.47715 6.47715 2 12 2C17.5229 2 22 6.47715 22 12ZM16.1978 8.95673C16.5221 8.22495 15.775 7.47779 15.0433 7.80219L10.0262 10.0262L7.80224 15.0431C7.47783 15.775 8.225 16.5221 8.95678 16.1978L13.9736 13.9736L16.1978 8.95673Z" fill="#84858D"/>
</svg>
