<svg width="24" height="24" viewBox="0 0 24 24" fill="none" xmlns="http://www.w3.org/2000/svg">
<path d="M6.6929 7.84615C6.6929 5.16923 8.87116 3 11.5386 3C14.2061 3 16.3843 5.16923 16.3843 7.84615C16.3843 8.59385 16.2182 9.30462 15.9044 9.93231C15.8305 9.92308 15.7567 9.92308 15.6829 9.92308C14.6676 9.92308 13.6615 10.2 12.7754 10.7169C12.4801 10.8923 12.2032 11.0862 11.9447 11.3077C11.4925 11.6862 11.114 12.1292 10.8002 12.6277C9.89569 12.4985 9.06499 12.1015 8.40044 11.5292C7.35746 10.6523 6.6929 9.32308 6.6929 7.84615ZM20.7962 20.7969C20.6615 20.9317 20.4843 21 20.3071 21C20.1298 21 19.9526 20.9326 19.8179 20.7969L18.2497 19.2286C18.1353 19.3108 18.031 19.404 17.9073 19.4769C17.227 19.8757 16.4683 20.0788 15.6995 20.0788C15.3275 20.0788 14.9518 20.0308 14.5817 19.9348C13.4492 19.6385 12.4995 18.9175 11.9087 17.9077C11.3171 16.896 11.1547 15.7154 11.4509 14.5818C11.7472 13.4492 12.4681 12.4994 13.4778 11.9086C15.5675 10.6892 18.2552 11.3917 19.4764 13.4778C20.068 14.4895 20.2305 15.6702 19.9342 16.8037C19.7939 17.3382 19.553 17.8265 19.2392 18.2612L20.7972 19.8194C21.0676 20.0898 21.0676 20.5283 20.7972 20.7988L20.7962 20.7969ZM18.594 16.452C18.797 15.6766 18.6854 14.868 18.2802 14.1766C17.7227 13.224 16.7185 12.6932 15.6866 12.6932C15.1715 12.6932 14.651 12.8252 14.1756 13.1031C13.4843 13.5074 12.9914 14.1572 12.7884 14.9317C12.5853 15.7062 12.697 16.5157 13.1022 17.2071C13.5074 17.8985 14.1562 18.3914 14.9306 18.5945C15.7078 18.7966 16.5145 18.6858 17.2058 18.2806C17.8971 17.8754 18.3909 17.2265 18.594 16.452ZM10.7162 18.6092C9.93169 17.2708 9.7194 15.72 10.1071 14.2338C10.1347 14.1323 10.1624 14.0308 10.1994 13.9292C9.21175 13.7169 8.27953 13.2554 7.49498 12.5815C7.30115 12.4246 7.12578 12.2492 6.95041 12.0646C6.2674 12.4062 5.64899 12.8492 5.0952 13.4031C3.74763 14.7508 3 16.5508 3 18.4615C3 19.8646 4.13528 21 5.53823 21H13.4483C12.3038 20.5292 11.3531 19.6985 10.7162 18.6092Z" fill="white"/>
</svg>
