<svg width="24" height="24" viewBox="0 0 24 24" fill="none" xmlns="http://www.w3.org/2000/svg">
<path d="M21.4141 20.8563H20.7891V9.57185C20.7891 9.25604 20.5267 9 20.2031 9H17.8594C17.5358 9 17.2734 9.25604 17.2734 9.57185V20.8563H16.1016V13.3842C16.1016 13.0684 15.8392 12.8123 15.5156 12.8123H13.1719C12.8483 12.8123 12.5859 13.0684 12.5859 13.3842V20.8563H11.4141V15.4809C11.4141 15.1651 11.1517 14.9091 10.8281 14.9091H8.48438C8.16078 14.9091 7.89844 15.1651 7.89844 15.4809V20.8563H6.72656V16.8534C6.72656 16.5376 6.46422 16.2815 6.14062 16.2815H3.79688C3.47328 16.2815 3.21094 16.5376 3.21094 16.8534V20.8563H2.58594C2.26234 20.8563 2 21.1123 2 21.4282C2 21.744 2.26234 22 2.58594 22H21.4141C21.7377 22 22 21.744 22 21.4282C22 21.1123 21.7377 20.8563 21.4141 20.8563Z" fill="white"/>
<path d="M2.58593 15C6.24283 15 10.2085 13.6439 13.7524 11.1814C16.5279 9.25286 18.8416 6.78913 20.2788 4.26634L20.8478 6.45919C20.918 6.72951 21.2567 6.96305 21.5655 6.88698C21.8802 6.80945 22.0635 6.46875 21.9797 6.146L21.0203 2.44856C20.9365 2.12585 20.6153 1.93426 20.3027 2.02078L16.7219 3.01151C16.4093 3.09798 16.2238 3.42973 16.3076 3.75249C16.3913 4.07524 16.7125 4.26683 17.0252 4.18027L19.332 3.54202C17.9912 5.9478 15.7753 8.31735 13.0982 10.1775C9.74555 12.5071 6.01225 13.79 2.58593 13.79C2.26234 13.79 2 14.0609 2 14.395C2 14.7291 2.26234 15 2.58593 15Z" fill="white"/>
</svg>
