<svg width="24" height="24" viewBox="0 0 24 24" fill="none" xmlns="http://www.w3.org/2000/svg">
<path d="M20.1635 15.2728C19.7554 15.2728 19.3472 15.5796 19.3472 16.091V18.1364C19.3472 18.8523 18.7349 19.3637 18.1227 19.3637H16.0819C15.6737 19.3637 15.2656 19.6705 15.2656 20.1819C15.2656 20.6932 15.5717 21.0001 16.0819 21.0001H18.1227C19.6533 21.0001 20.9798 19.7728 20.9798 18.1364V16.091C20.9798 15.6819 20.5717 15.2728 20.1635 15.2728Z" fill="#84858D"/>
<path d="M16.0819 4.63643H18.1227C18.837 4.63643 19.3472 5.25006 19.3472 5.8637V7.90915C19.3472 8.31824 19.6534 8.72733 20.1636 8.72733C20.6738 8.72733 20.9799 8.42052 20.9799 7.90915V5.8637C20.9799 4.32961 19.7554 3.00006 18.1227 3.00006H16.0819C15.6738 3.00006 15.2656 3.30688 15.2656 3.81824C15.2656 4.32961 15.6738 4.63643 16.0819 4.63643Z" fill="#84858D"/>
<path d="M7.91748 19.3637H5.87667C5.16238 19.3637 4.65218 18.7501 4.65218 18.1364V16.091C4.65218 15.6819 4.34606 15.2728 3.83585 15.2728C3.32565 15.2728 3.01953 15.6819 3.01953 16.091V18.1364C3.01953 19.6705 4.24402 21.0001 5.87667 21.0001H7.91748C8.32565 21.0001 8.73381 20.6932 8.73381 20.1819C8.73381 19.6705 8.32565 19.3637 7.91748 19.3637Z" fill="#84858D"/>
<path d="M3.83585 8.72733C4.24402 8.72733 4.65218 8.42052 4.65218 7.90915V5.8637C4.65218 5.14779 5.26443 4.63643 5.87667 4.63643H7.91749C8.32565 4.63643 8.73381 4.32961 8.73381 3.81824C8.73381 3.30688 8.32565 3.00006 7.91749 3.00006H5.87667C4.34606 3.00006 3.01953 4.32961 3.01953 5.8637V7.90915C3.01953 8.31824 3.42769 8.72733 3.83585 8.72733Z" fill="#84858D"/>
<path d="M16.081 18.1364C17.2035 18.1364 18.1219 17.216 18.1219 16.091V14.2501H5.87695V16.091C5.87695 17.216 6.79532 18.1364 7.91777 18.1364H16.081Z" fill="#84858D"/>
<path d="M21.1837 11.1819H18.1225V7.90922C18.1225 6.78422 17.2041 5.86377 16.0816 5.86377H7.91837C6.79592 5.86377 5.87755 6.78422 5.87755 7.90922V11.3865H2.81633C2.40816 11.3865 2 11.6933 2 12.2047C2 12.716 2.30612 13.0228 2.81633 13.0228H21.1837C21.5918 13.0228 22 12.716 22 12.2047C22 11.6933 21.5918 11.1819 21.1837 11.1819Z" fill="#84858D"/>
</svg>
