<svg width="24" height="24" viewBox="0 0 24 24" fill="none" xmlns="http://www.w3.org/2000/svg">
<path d="M20.1635 15.2725C19.7554 15.2725 19.3472 15.5793 19.3472 16.0907V18.1361C19.3472 18.852 18.7349 19.3634 18.1227 19.3634H16.0819C15.6737 19.3634 15.2656 19.6702 15.2656 20.1816C15.2656 20.6929 15.5717 20.9998 16.0819 20.9998H18.1227C19.6533 20.9998 20.9798 19.7725 20.9798 18.1361V16.0907C20.9798 15.6816 20.5717 15.2725 20.1635 15.2725Z" fill="white"/>
<path d="M16.0819 4.63637H18.1227C18.837 4.63637 19.3472 5.25 19.3472 5.86364V7.90909C19.3472 8.31818 19.6534 8.72727 20.1636 8.72727C20.6738 8.72727 20.9799 8.42046 20.9799 7.90909V5.86364C20.9799 4.32955 19.7554 3 18.1227 3H16.0819C15.6738 3 15.2656 3.30682 15.2656 3.81818C15.2656 4.32955 15.6738 4.63637 16.0819 4.63637Z" fill="white"/>
<path d="M7.91846 19.3634H5.87765C5.16336 19.3634 4.65316 18.7498 4.65316 18.1361V16.0907C4.65316 15.6816 4.34704 15.2725 3.83683 15.2725C3.32663 15.2725 3.02051 15.6816 3.02051 16.0907V18.1361C3.02051 19.6702 4.245 20.9998 5.87765 20.9998H7.91846C8.32663 20.9998 8.73479 20.6929 8.73479 20.1816C8.73479 19.6702 8.32663 19.3634 7.91846 19.3634Z" fill="white"/>
<path d="M3.83683 8.72727C4.245 8.72727 4.65316 8.42046 4.65316 7.90909V5.86364C4.65316 5.14773 5.26541 4.63637 5.87765 4.63637H7.91847C8.32663 4.63637 8.73479 4.32955 8.73479 3.81818C8.73479 3.30682 8.32663 3 7.91847 3H5.87765C4.34704 3 3.02051 4.32955 3.02051 5.86364V7.90909C3.02051 8.31818 3.42867 8.72727 3.83683 8.72727Z" fill="white"/>
<path d="M16.082 18.1363C17.2045 18.1363 18.1229 17.2159 18.1229 16.0909V14.25H5.87793V16.0909C5.87793 17.2159 6.7963 18.1363 7.91875 18.1363H16.082Z" fill="white"/>
<path d="M21.1837 11.1814H18.1225V7.90873C18.1225 6.78373 17.2041 5.86328 16.0816 5.86328H7.91837C6.79592 5.86328 5.87755 6.78373 5.87755 7.90873V11.386H2.81633C2.40816 11.386 2 11.6928 2 12.2042C2 12.7155 2.30612 13.0223 2.81633 13.0223H21.1837C21.5918 13.0223 22 12.7155 22 12.2042C22 11.6928 21.5918 11.1814 21.1837 11.1814Z" fill="white"/>
</svg>
