<svg width="24" height="24" viewBox="0 0 24 24" fill="none" xmlns="http://www.w3.org/2000/svg">
<path d="M21.9372 10.8898C21.9056 10.6087 21.5777 10.3972 21.2942 10.3972C20.3779 10.3972 19.5646 9.85942 19.2236 9.02701C18.8755 8.17463 19.1001 7.18074 19.7828 6.55444C19.9978 6.35784 20.024 6.02865 19.8438 5.80014C19.3746 5.20455 18.8416 4.66647 18.2595 4.20019C18.0318 4.01752 17.6972 4.04295 17.4995 4.26169C16.9035 4.9218 15.8328 5.1671 15.0054 4.8219C14.1447 4.45976 13.6014 3.5873 13.6548 2.65084C13.6723 2.35651 13.4571 2.10075 13.1638 2.06658C12.4168 1.98009 11.6632 1.97758 10.9139 2.0607C10.6244 2.09271 10.4093 2.34241 10.4189 2.63303C10.4514 3.56032 9.90196 4.41738 9.04956 4.76655C8.23211 5.1005 7.16884 4.85702 6.57402 4.2027C6.37741 3.98716 6.04865 3.96069 5.81936 4.13947C5.22012 4.60974 4.67512 5.14815 4.20166 5.7389C4.01716 5.96854 4.04441 6.30136 4.26125 6.49865C4.95744 7.1291 5.18189 8.13155 4.82044 8.99389C4.47532 9.816 3.62171 10.3456 2.64459 10.3456C2.3275 10.3354 2.10184 10.5484 2.06681 10.8368C1.97893 11.5878 1.97798 12.3534 2.06257 13.1106C2.09414 13.3929 2.43173 13.6026 2.71837 13.6026C3.58936 13.5804 4.42507 14.1193 4.77615 14.9727C5.1255 15.8251 4.90061 16.8186 4.21679 17.4457C4.00289 17.6423 3.97556 17.9707 4.15616 18.199C4.62055 18.7909 5.15404 19.3293 5.73788 19.7995C5.96709 19.9841 6.30044 19.9582 6.49911 19.7392C7.09748 19.0776 8.16802 18.8327 8.99204 19.1786C9.85525 19.5398 10.3983 20.4122 10.3452 21.3489C10.3279 21.6432 10.5436 21.8998 10.8358 21.9331C11.2181 21.9779 11.6024 22 11.9879 22C12.3538 22 12.7198 21.98 13.0857 21.9393C13.3757 21.9073 13.5903 21.6573 13.5806 21.3666C13.5471 20.4398 14.0977 19.5826 14.9491 19.2341C15.772 18.898 16.8305 19.144 17.4256 19.7974C17.6233 20.0125 17.9501 20.0386 18.1803 19.8605C18.7785 19.3915 19.3225 18.8533 19.798 18.261C19.9827 18.0318 19.9565 17.6985 19.7384 17.5009C19.0424 16.8709 18.8167 15.868 19.1782 15.0065C19.5179 14.1955 20.3398 13.6509 21.2238 13.6509L21.3475 13.6542C21.6344 13.6775 21.8982 13.4565 21.9329 13.1637C22.0212 12.412 22.0221 11.6472 21.9372 10.8898ZM12 17.7651C8.81586 17.7651 6.23479 15.1841 6.23479 12.0001C6.23479 8.81614 8.81594 6.23511 12 6.23511C15.184 6.23511 17.7651 8.81614 17.7651 12.0001C17.7651 13.0809 17.4672 14.0917 16.9497 14.9561L14.4253 12.4316C14.608 12.0007 14.7045 11.5336 14.7045 11.0515C14.7045 10.1074 14.3368 9.21989 13.6691 8.55243C13.0016 7.88496 12.1141 7.51737 11.1702 7.51737C10.8552 7.51737 10.5417 7.55923 10.2383 7.64183C10.1055 7.67807 9.99685 7.78757 9.96147 7.92068C9.92531 8.05682 9.96605 8.19634 10.0724 8.30281C10.0724 8.30281 11.3187 9.55869 11.7357 9.97558C11.7794 10.0193 11.7793 10.1235 11.7732 10.161L11.7693 10.1884C11.7272 10.6469 11.6462 11.1971 11.5793 11.4086C11.5703 11.4175 11.5619 11.425 11.5527 11.4342C11.5431 11.4438 11.5343 11.4531 11.525 11.4626C11.3108 11.5313 10.752 11.6133 10.2863 11.655L10.2864 11.6525L10.2655 11.6578C10.2618 11.6582 10.2549 11.6587 10.2457 11.6587C10.1953 11.6587 10.1213 11.6446 10.054 11.5774C9.61999 11.1434 8.42257 9.95457 8.42257 9.95457C8.31514 9.84749 8.20495 9.825 8.13151 9.825C7.96034 9.825 7.80708 9.94868 7.75881 10.1261C7.42918 11.3459 7.77862 12.658 8.67098 13.5504C9.33863 14.218 10.2262 14.5856 11.1703 14.5856C11.6524 14.5856 12.1196 14.4891 12.5504 14.3064L15.1022 16.8582C14.2063 17.4314 13.1425 17.7651 12 17.7651Z" fill="white"/>
</svg>
