<svg width="24" height="24" viewBox="0 0 24 24" fill="none" xmlns="http://www.w3.org/2000/svg">
<path fill-rule="evenodd" clip-rule="evenodd" d="M3.46765 5.99968H6.38974V7.5864C6.38974 7.86296 6.61395 8.08716 6.89051 8.08716C7.16707 8.08716 7.39127 7.86296 7.39127 7.5864V5.99968H12.636V7.5864C12.636 7.86296 12.8602 8.08716 13.1368 8.08716C13.4134 8.08716 13.6376 7.86296 13.6376 7.5864V5.99968H16.5596C16.8843 5.99968 17.1532 6.24507 17.1829 6.56832L17.654 11.6934C17.4311 11.6702 17.205 11.6582 16.976 11.6582C13.3976 11.6582 10.4967 14.5591 10.4967 18.1375C10.4967 19.0177 10.6725 19.8566 10.9904 20.6217H2.89629C2.53906 20.6217 2.23151 20.486 1.99076 20.222C1.74996 19.9581 1.64299 19.6395 1.67566 19.2837L2.84435 6.56832C2.87407 6.24507 3.14299 5.99968 3.46765 5.99968ZM6.38974 5.91723V4.13204C6.38974 3.13496 6.79727 2.22887 7.45385 1.57229C8.11043 0.91571 9.01652 0.508179 10.0136 0.508179C11.0107 0.508179 11.9168 0.91571 12.5734 1.57229C13.2299 2.22887 13.6375 3.13501 13.6375 4.13204V5.91723H12.636V4.13204C12.636 3.41143 12.3408 2.75588 11.8653 2.28038C11.3897 1.80483 10.7343 1.50966 10.0136 1.50966C9.29299 1.50966 8.63749 1.80483 8.16195 2.28038C7.6864 2.75588 7.39123 3.41138 7.39123 4.13204V5.91723H6.38974ZM16.976 12.7832C14.0189 12.7832 11.6216 15.1804 11.6216 18.1375C11.6216 21.0946 14.0189 23.4919 16.976 23.4919C19.9331 23.4919 22.3303 21.0946 22.3303 18.1375C22.3303 15.1804 19.9331 12.7832 16.976 12.7832ZM14.3588 18.4545L15.9607 19.9257C16.1852 20.1322 16.5326 20.1212 16.7437 19.9036L19.6021 17.1668C19.8253 16.952 19.8322 16.5968 19.6174 16.3736C19.4027 16.1503 19.0475 16.1434 18.8242 16.3582L16.3331 18.7433L15.119 17.6284C14.8909 17.4185 14.5357 17.4332 14.3258 17.6613C14.1159 17.8894 14.1306 18.2446 14.3588 18.4545Z" fill="#84858D"/>
</svg>
