<svg width="24" height="24" viewBox="0 0 24 24" fill="none" xmlns="http://www.w3.org/2000/svg">
<path d="M20.7525 3.75H17.7525C17.2667 3.74927 16.7916 3.89284 16.3875 4.1625L15.0375 5.0775L14.01 4.275C13.5819 3.93887 13.0543 3.75423 12.51 3.75H3.2475C2.58512 3.75 1.94987 4.01313 1.4815 4.4815C1.01313 4.94988 0.75 5.58512 0.75 6.2475V17.7525C0.75 18.0805 0.8146 18.4052 0.940111 18.7083C1.06562 19.0113 1.24959 19.2866 1.4815 19.5185C1.71342 19.7504 1.98874 19.9344 2.29175 20.0599C2.59476 20.1854 2.91952 20.25 3.2475 20.25H12.495C13.0388 20.243 13.5655 20.0587 13.995 19.725L15.015 18.9225L16.38 19.8375C16.7841 20.1072 17.2592 20.2507 17.745 20.25H20.745C21.0736 20.251 21.3992 20.1871 21.7031 20.062C22.0069 19.937 22.2831 19.7532 22.5159 19.5212C22.7486 19.2891 22.9332 19.0135 23.0592 18.71C23.1852 18.4065 23.25 18.0811 23.25 17.7525V6.2475C23.25 5.58512 22.9869 4.94988 22.5185 4.4815C22.0501 4.01313 21.4149 3.75 20.7525 3.75ZM15 12.75C14.8517 12.75 14.7067 12.706 14.5833 12.6236C14.46 12.5412 14.3639 12.4241 14.3071 12.287C14.2503 12.15 14.2355 11.9992 14.2644 11.8537C14.2934 11.7082 14.3648 11.5746 14.4697 11.4697C14.5746 11.3648 14.7082 11.2934 14.8537 11.2644C14.9992 11.2355 15.15 11.2503 15.287 11.3071C15.4241 11.3639 15.5412 11.46 15.6236 11.5833C15.706 11.7067 15.75 11.8517 15.75 12C15.75 12.1989 15.671 12.3897 15.5303 12.5303C15.3897 12.671 15.1989 12.75 15 12.75ZM15.75 15.525C15.75 15.6733 15.706 15.8183 15.6236 15.9417C15.5412 16.065 15.4241 16.1611 15.287 16.2179C15.15 16.2747 14.9992 16.2895 14.8537 16.2606C14.7082 16.2317 14.5746 16.1602 14.4697 16.0553C14.3648 15.9504 14.2934 15.8168 14.2644 15.6713C14.2355 15.5258 14.2503 15.375 14.3071 15.238C14.3639 15.1009 14.46 14.9838 14.5833 14.9014C14.7067 14.819 14.8517 14.775 15 14.775C15.1989 14.775 15.3897 14.854 15.5303 14.9947C15.671 15.1353 15.75 15.3261 15.75 15.525ZM15 9.225C14.8517 9.225 14.7067 9.18102 14.5833 9.09861C14.46 9.01619 14.3639 8.89906 14.3071 8.76202C14.2503 8.62497 14.2355 8.47417 14.2644 8.32869C14.2934 8.1832 14.3648 8.04956 14.4697 7.94467C14.5746 7.83978 14.7082 7.76835 14.8537 7.73941C14.9992 7.71048 15.15 7.72533 15.287 7.78209C15.4241 7.83886 15.5412 7.93499 15.6236 8.05833C15.706 8.18166 15.75 8.32667 15.75 8.475C15.75 8.67392 15.671 8.86468 15.5303 9.00533C15.3897 9.14599 15.1989 9.225 15 9.225Z" fill="#84858D"/>
</svg>
