<svg width="24" height="18" viewBox="0 0 24 18" fill="none" xmlns="http://www.w3.org/2000/svg">
<path d="M20.7525 0.750003H17.7525C17.2667 0.749272 16.7916 0.892842 16.3875 1.1625L15.0375 2.0775L14.01 1.275C13.5819 0.938868 13.0543 0.754229 12.51 0.750003H3.2475C2.58512 0.750003 1.94987 1.01313 1.4815 1.4815C1.01313 1.94988 0.75 2.58512 0.75 3.2475V14.7525C0.75 15.0805 0.8146 15.4052 0.940111 15.7083C1.06562 16.0113 1.24959 16.2866 1.4815 16.5185C1.71342 16.7504 1.98874 16.9344 2.29175 17.0599C2.59476 17.1854 2.91952 17.25 3.2475 17.25H12.495C13.0388 17.243 13.5655 17.0587 13.995 16.725L15.015 15.9225L16.38 16.8375C16.7841 17.1072 17.2592 17.2507 17.745 17.25H20.745C21.0736 17.251 21.3992 17.1871 21.7031 17.062C22.0069 16.937 22.2831 16.7532 22.5159 16.5212C22.7486 16.2891 22.9332 16.0135 23.0592 15.71C23.1852 15.4065 23.25 15.0811 23.25 14.7525V3.2475C23.25 2.58512 22.9869 1.94988 22.5185 1.4815C22.0501 1.01313 21.4149 0.750003 20.7525 0.750003ZM15 9.75C14.8517 9.75 14.7067 9.70602 14.5833 9.62361C14.46 9.54119 14.3639 9.42406 14.3071 9.28702C14.2503 9.14997 14.2355 8.99917 14.2644 8.85369C14.2934 8.7082 14.3648 8.57456 14.4697 8.46967C14.5746 8.36478 14.7082 8.29335 14.8537 8.26441C14.9992 8.23548 15.15 8.25033 15.287 8.30709C15.4241 8.36386 15.5412 8.45999 15.6236 8.58333C15.706 8.70666 15.75 8.85167 15.75 9C15.75 9.19892 15.671 9.38968 15.5303 9.53033C15.3897 9.67099 15.1989 9.75 15 9.75ZM15.75 12.525C15.75 12.6733 15.706 12.8183 15.6236 12.9417C15.5412 13.065 15.4241 13.1611 15.287 13.2179C15.15 13.2747 14.9992 13.2895 14.8537 13.2606C14.7082 13.2317 14.5746 13.1602 14.4697 13.0553C14.3648 12.9504 14.2934 12.8168 14.2644 12.6713C14.2355 12.5258 14.2503 12.375 14.3071 12.238C14.3639 12.1009 14.46 11.9838 14.5833 11.9014C14.7067 11.819 14.8517 11.775 15 11.775C15.1989 11.775 15.3897 11.854 15.5303 11.9947C15.671 12.1353 15.75 12.3261 15.75 12.525ZM15 6.225C14.8517 6.225 14.7067 6.18102 14.5833 6.09861C14.46 6.01619 14.3639 5.89906 14.3071 5.76202C14.2503 5.62497 14.2355 5.47417 14.2644 5.32869C14.2934 5.1832 14.3648 5.04956 14.4697 4.94467C14.5746 4.83978 14.7082 4.76835 14.8537 4.73941C14.9992 4.71048 15.15 4.72533 15.287 4.78209C15.4241 4.83886 15.5412 4.93499 15.6236 5.05833C15.706 5.18166 15.75 5.32667 15.75 5.475C15.75 5.67392 15.671 5.86468 15.5303 6.00533C15.3897 6.14599 15.1989 6.225 15 6.225Z" fill="white"/>
</svg>
