<svg width="24" height="25" viewBox="0 0 24 25" fill="none" xmlns="http://www.w3.org/2000/svg">
<g id="Icon" clip-path="url(#clip0_5862_3469)">
<g id="Group">
<path id="Vector" d="M22.2234 0.859375H1.77187C0.792187 0.859375 0 1.63281 0 2.58906V23.125C0 24.0812 0.792187 24.8594 1.77187 24.8594H22.2234C23.2031 24.8594 24 24.0813 24 23.1297V2.58906C24 1.63281 23.2031 0.859375 22.2234 0.859375ZM7.12031 21.3109H3.55781V9.85469H7.12031V21.3109ZM5.33906 8.29375C4.19531 8.29375 3.27188 7.37031 3.27188 6.23125C3.27188 5.09219 4.19531 4.16875 5.33906 4.16875C6.47813 4.16875 7.40156 5.09219 7.40156 6.23125C7.40156 7.36562 6.47813 8.29375 5.33906 8.29375ZM20.4516 21.3109H16.8937V15.7422C16.8937 14.4156 16.8703 12.7047 15.0422 12.7047C13.1906 12.7047 12.9094 14.1531 12.9094 15.6484V21.3109H9.35625V9.85469H12.7687V11.4203H12.8156C13.2891 10.5203 14.4516 9.56875 16.1813 9.56875C19.7859 9.56875 20.4516 11.9406 20.4516 15.025V21.3109Z" fill="#3F435E"/>
</g>
</g>
<defs>
<clipPath id="clip0_5862_3469">
<rect width="24" height="24" fill="white" transform="translate(0 0.859375)"/>
</clipPath>
</defs>
</svg>
