<svg width="20" height="20" viewBox="0 0 20 20" fill="none" xmlns="http://www.w3.org/2000/svg">
<path d="M2.76311 11.4842L3.49329 11.3129L2.76311 11.4842ZM2.76311 6.93667L3.49329 7.10794L2.76311 6.93667ZM15.6578 6.93667L16.3879 6.76539L15.6578 6.93667ZM15.6578 11.4842L16.3879 11.6555L15.6578 11.4842ZM11.4842 15.6578L11.3129 14.9276L11.4842 15.6578ZM6.93667 15.6578L6.76539 16.3879L6.93667 15.6578ZM6.93667 2.76311L6.76539 2.03293V2.03293L6.93667 2.76311ZM11.4842 2.76311L11.6555 2.03293L11.4842 2.76311ZM16.9697 18.0303C17.2626 18.3232 17.7374 18.3232 18.0303 18.0303C18.3232 17.7374 18.3232 17.2626 18.0303 16.9697L16.9697 18.0303ZM3.49329 11.3129C3.1689 9.93004 3.1689 8.49084 3.49329 7.10794L2.03293 6.76539C1.65569 8.3736 1.65569 10.0473 2.03293 11.6555L3.49329 11.3129ZM14.9276 7.10795C15.252 8.49084 15.252 9.93004 14.9276 11.3129L16.3879 11.6555C16.7652 10.0473 16.7652 8.3736 16.3879 6.76539L14.9276 7.10795ZM11.3129 14.9276C9.93004 15.252 8.49084 15.252 7.10795 14.9276L6.76539 16.3879C8.3736 16.7652 10.0473 16.7652 11.6555 16.3879L11.3129 14.9276ZM7.10794 3.49329C8.49084 3.1689 9.93004 3.1689 11.3129 3.49329L11.6555 2.03293C10.0473 1.65569 8.3736 1.65569 6.76539 2.03293L7.10794 3.49329ZM7.10795 14.9276C5.31441 14.5069 3.914 13.1065 3.49329 11.3129L2.03293 11.6555C2.58373 14.0037 4.41721 15.8371 6.76539 16.3879L7.10795 14.9276ZM11.6555 16.3879C14.0037 15.8371 15.8371 14.0037 16.3879 11.6555L14.9276 11.3129C14.5069 13.1065 13.1065 14.5069 11.3129 14.9276L11.6555 16.3879ZM11.3129 3.49329C13.1065 3.91399 14.5069 5.31441 14.9276 7.10795L16.3879 6.76539C15.8371 4.41721 14.0037 2.58373 11.6555 2.03293L11.3129 3.49329ZM6.76539 2.03293C4.41721 2.58373 2.58373 4.41721 2.03293 6.76539L3.49329 7.10794C3.914 5.3144 5.31441 3.91399 7.10794 3.49329L6.76539 2.03293ZM13.9156 14.9763L16.9697 18.0303L18.0303 16.9697L14.9763 13.9156L13.9156 14.9763Z" fill="#A0A3B5"/>
</svg>
