<svg width="160" height="160" viewBox="0 0 160 160" fill="none" xmlns="http://www.w3.org/2000/svg">
<path d="M31.3242 125.844L36.5648 65.9502L38.218 67.1127C42.4523 70.0877 44.7836 75.0939 44.3336 80.2533L41.4461 113.263C40.9336 119.116 36.9367 124.085 31.3242 125.844Z" fill="#C7CADA"/>
<path d="M7.14936 130.697L4.99936 58.1781C4.94624 56.3374 6.50874 54.8624 8.33999 55.0249L37.2962 57.5593L30.4806 135.466L9.95561 133.669C8.40249 133.531 7.19624 132.253 7.14936 130.697Z" fill="#FFC000"/>
<path d="M153.187 67.0029C151.053 64.4623 148.059 62.9029 144.753 62.6123L91.1215 57.9185L98.2683 31.0623C99.659 25.8342 98.8746 20.406 96.0621 15.7842C93.2465 11.1623 88.7871 7.97479 83.5027 6.81229C79.7527 5.98729 75.9715 8.22792 74.8965 11.9123L69.6558 29.8248C67.0559 38.7154 62.3527 47.0029 56.0496 53.7904L53.609 56.4185C49.5309 60.8092 43.8652 63.1529 37.9277 62.9435L38.6465 54.7217C38.6996 54.1185 38.2527 53.5904 37.6527 53.5373C37.0465 53.4842 36.5215 53.931 36.4683 54.531L32.8027 96.4154L29.9559 128.956L29.1371 138.3C29.084 138.903 29.5308 139.431 30.1308 139.484C30.1621 139.487 30.1965 139.487 30.2277 139.487C30.7871 139.487 31.2652 139.059 31.3152 138.49L32.0371 130.237L32.8152 130.306C37.7434 130.734 42.4559 132.822 46.084 136.184L46.3183 136.4C54.6059 144.075 65.3527 148.84 76.5777 149.822C88.9965 150.906 105.49 152.35 116.356 153.3L116.49 153.312C116.856 153.344 117.221 153.359 117.581 153.359C123.943 153.359 129.381 148.475 129.943 142.019C130.234 138.712 129.218 135.494 127.084 132.95C126.59 132.362 126.053 131.831 125.475 131.353L126.643 131.456C127.003 131.487 127.362 131.503 127.721 131.503C130.562 131.503 133.287 130.515 135.487 128.669C137.965 126.587 139.487 123.669 139.768 120.444L139.821 119.831C140.103 116.606 139.112 113.465 137.034 110.987C136.475 110.319 135.85 109.725 135.178 109.2C137.568 108.925 139.828 107.959 141.712 106.378C144.253 104.244 145.812 101.25 146.103 97.9435C146.25 96.2748 146.062 94.6248 145.55 93.0404C145.365 92.4654 144.746 92.1498 144.171 92.3373C143.596 92.5217 143.281 93.1404 143.468 93.7154C143.89 95.0185 144.043 96.3779 143.921 97.7529C143.684 100.475 142.4 102.944 140.306 104.7C138.212 106.456 135.556 107.294 132.834 107.056L118.243 105.781C117.64 105.728 117.112 106.175 117.059 106.775C117.006 107.378 117.453 107.906 118.053 107.959L128.612 108.884C131.253 109.115 133.646 110.362 135.353 112.394C137.056 114.425 137.868 117 137.637 119.64L137.584 120.253C137.353 122.894 136.106 125.287 134.075 126.994C132.043 128.7 129.468 129.509 126.828 129.278L115.146 128.256C114.54 128.206 114.015 128.65 113.962 129.25C113.909 129.853 114.356 130.381 114.956 130.434L118.453 130.74C121.178 130.978 123.643 132.262 125.4 134.356C127.156 136.45 127.993 139.103 127.756 141.828C127.265 147.45 122.287 151.622 116.671 151.131L116.537 151.119C105.671 150.169 89.1777 148.725 76.759 147.64C66.0152 146.703 55.7277 142.137 47.7934 134.79L47.559 134.575C43.5746 130.887 38.4027 128.594 32.9934 128.125L32.2183 128.056L34.4559 102.487L37.7246 65.1279C44.3434 65.3935 50.6621 62.7967 55.2027 57.9092L57.6434 55.281C64.1777 48.2467 69.0527 39.656 71.7465 30.4404L76.9809 12.5279C77.7371 9.94354 80.3902 8.37167 83.0184 8.94979C87.7152 9.98417 91.6777 12.8154 94.1809 16.9248C96.6809 21.031 97.3777 25.8529 96.1434 30.5029L88.6621 58.6185C88.5777 58.931 88.6371 59.2623 88.8246 59.5279C89.009 59.7935 89.3027 59.9623 89.6246 59.9904L144.553 64.7967C147.275 65.0342 149.743 66.3185 151.5 68.4123C153.256 70.506 154.093 73.1592 153.856 75.8842C153.365 81.506 148.387 85.681 142.768 85.1873L123.337 83.4873C122.731 83.4342 122.206 83.881 122.153 84.481C122.1 85.081 122.546 85.6123 123.146 85.6654L142.578 87.3654C149.4 87.9592 155.437 82.8967 156.037 76.0717C156.334 72.7654 155.318 69.5435 153.187 67.0029Z" fill="#3F435E"/>
<path d="M112.382 32.1809C112.238 32.1809 112.091 32.1527 111.951 32.0934C111.394 31.8559 111.138 31.2121 111.376 30.6559L114.582 23.1777C114.819 22.6215 115.463 22.3652 116.019 22.6027C116.576 22.8402 116.832 23.484 116.594 24.0402L113.388 31.5184C113.21 31.934 112.807 32.1809 112.382 32.1809Z" fill="#DE9300"/>
<path d="M128.11 51.3248C127.622 51.3248 127.178 50.9967 127.05 50.503C126.9 49.9186 127.253 49.3217 127.838 49.1717L135.722 47.1561C136.306 47.0061 136.903 47.3592 137.053 47.9436C137.203 48.528 136.85 49.1248 136.266 49.2748L128.381 51.2905C128.288 51.3155 128.197 51.3248 128.11 51.3248Z" fill="#DE9300"/>
<path d="M32.4728 43.8684C32.3446 43.8684 32.2165 43.8465 32.0884 43.7996L24.4665 40.9465C23.9009 40.734 23.6134 40.1059 23.8259 39.5402C24.0384 38.9746 24.6696 38.6871 25.2321 38.8996L32.854 41.7527C33.4196 41.9652 33.7071 42.5934 33.4946 43.159C33.3321 43.5996 32.9165 43.8684 32.4728 43.8684Z" fill="#DE9300"/>
<path d="M50.8597 27.2685C50.391 27.2685 49.9597 26.9654 49.8128 26.4935L47.4316 18.7123C47.2535 18.1341 47.5785 17.5216 48.1566 17.3466C48.7347 17.1685 49.3472 17.4935 49.5222 18.0716L51.9035 25.8529C52.0816 26.431 51.7566 27.0435 51.1785 27.2185C51.0753 27.2529 50.966 27.2685 50.8597 27.2685Z" fill="#DE9300"/>
</svg>
