<svg width="24" height="25" viewBox="0 0 24 25" fill="none" xmlns="http://www.w3.org/2000/svg">
<g id="Icon">
<path id="Vector" d="M22 6.65934C21.2483 6.98544 20.4534 7.201 19.64 7.29934C20.4982 6.78666 21.1413 5.98012 21.45 5.02934C20.6436 5.5094 19.7608 5.84764 18.84 6.02934C18.2245 5.36191 17.405 4.91764 16.5098 4.76619C15.6147 4.61475 14.6945 4.7647 13.8938 5.19253C13.093 5.62036 12.4569 6.30187 12.0852 7.13018C11.7135 7.95848 11.6273 8.88673 11.84 9.76934C10.2094 9.68687 8.61444 9.26229 7.15866 8.5232C5.70287 7.78411 4.41885 6.74703 3.39 5.47934C3.02914 6.10951 2.83952 6.82316 2.84 7.54934C2.83872 8.22372 3.00422 8.88796 3.32176 9.4829C3.63929 10.0779 4.09902 10.5851 4.66 10.9593C4.00798 10.9416 3.36989 10.7666 2.8 10.4493V10.4993C2.80489 11.4442 3.13599 12.3584 3.73731 13.0873C4.33864 13.8162 5.17326 14.315 6.1 14.4993C5.74326 14.6079 5.37288 14.6651 5 14.6693C4.74189 14.6663 4.48442 14.6429 4.23 14.5993C4.49391 15.4122 5.00462 16.1225 5.69108 16.6315C6.37753 17.1405 7.20558 17.4229 8.06 17.4393C6.6172 18.5746 4.83588 19.1942 3 19.1993C2.66574 19.2004 2.33174 19.1804 2 19.1393C3.87443 20.3496 6.05881 20.9921 8.29 20.9893C9.82969 21.0053 11.3571 20.7144 12.7831 20.1334C14.2091 19.5525 15.505 18.6932 16.5952 17.6058C17.6854 16.5184 18.548 15.2247 19.1326 13.8002C19.7172 12.3758 20.012 10.8491 20 9.30934C20 9.13934 20 8.95934 20 8.77934C20.7847 8.19415 21.4615 7.47677 22 6.65934Z" fill="#3F435E"/>
</g>
</svg>
